{"title":"Thor The Dark World 2013 m720p BluRay x264 DD5.1 Multi-Audio [En","uid":9771881,"size":4505258868,"categoryP":"video","categoryS":"hd___movies","magnet":"?xt=urn:btih:34bb8868cb847caf595daff8fb7dca65c207ced0&amp;dn=Thor+The+Dark+World+2013+m720p+BluRay+x264+DD5.1+Multi-Audio+%5BEn&amp;tr=udp%3A%2F%2Ftracker.openbittorrent.com%3A80&amp;tr=udp%3A%2F%2Fopen.demonii.com%3A1337&amp;tr=udp%3A%2F%2Ftracker.coppersurfer.tk%3A6969&amp;tr=udp%3A%2F%2Fexodus.desync.com%3A6969","seeders":1,"leechers":1,"uploader":"HDTS","files":2,"time":1394963949,"description":"[img]http://i1095.photobucket.com/albums/i461/gokbiloz/ARNT4/afis_zps25066bce.jpg[/img]\n &lt;a href=&quot;\nhttp://www.imdb.com/title/tt1981115/&quot; rel=&quot;nofollow&quot; target=&quot;_NEW&quot;&gt;\nhttp://www.imdb.com/title/tt1981115/&lt;/a&gt;\n\nGeneral\nUnique ID                                : 203826875005184314948682975178891864524 (0x9957A0D1FFD5C47FA133FBE26ED229CC)\nComplete name                            : Thor The Dark World 2013 m720p BluRay x264 DD5.1 Multi-Audio [English-Hindi-Tamil-Telugu]-HDTSThor The Dark World 2013 m720p BluRay x264-HDTS.mkv\nFormat                                   : Matroska\nFormat version                           : Version 4 / Version 2\nFile size                                : 4.16 GiB\nDuration                                 : 1h 52mn\nOverall bit rate                         : 5 311 Kbps\nEncoded date                             : UTC 2014-03-16 07:32:37\nWriting application                      : mkvmerge v6.1.0 ('Old Devil') built on Mar  2 2013 14:32:37\nWriting library                          : libebml v1.3.0 + libmatroska v1.4.0\n\nVideo\nID                                       : 1\nFormat                                   : AVC\nFormat/Info                              : Advanced Video Codec\nFormat profile                           : &lt;a class=&quot;__cf_email__&quot; href=&quot;/cdn-cgi/l/email-protection&quot; data-cfemail=&quot;4901202e2109057d6778&quot;&gt;[email&amp;#160;protected]&lt;/a&gt;&lt;script cf-hash='f9e31' type=&quot;text/javascript&quot;&gt;\n/* &lt;![CDATA[ */!function(){try{var t=&quot;currentScript&quot;in document?document.currentScript:function(){for(var t=document.getElementsByTagName(&quot;script&quot;),e=t.length;e--;)if(t[e].getAttribute(&quot;cf-hash&quot;))return t[e]}();if(t&amp;&amp;t.previousSibling){var e,r,n,i,c=t.previousSibling,a=c.getAttribute(&quot;data-cfemail&quot;);if(a){for(e=&quot;&quot;,r=parseInt(a.substr(0,2),16),n=2;a.length-n;n+=2)i=parseInt(a.substr(n,2),16)^r,e+=String.fromCharCode(i);e=document.createTextNode(e),c.parentNode.replaceChild(e,c)}}}catch(u){}}();/* ]]&gt; */&lt;/script&gt;\nFormat settings, CABAC                   : Yes\nFormat settings, ReFrames                : 9 frames\nFormat settings, GOP                     : M=1, N=3\nCodec ID                                 : V_MPEG4/ISO/AVC\nDuration                                 : 1h 52mn\nBit rate                                 : 2 748 Kbps\nWidth                                    : 1 280 pixels\nHeight                                   : 534 pixels\nDisplay aspect ratio                     : 2.40:1\nFrame rate mode                          : Constant\nFrame rate                               : 23.976 fps\nColor space                              : YUV\nChroma subsampling                       : 4:2:0\nBit depth                                : 8 bits\nScan type                                : Progressive\nBits/(Pixel*Frame)                       : 0.168\nStream size                              : 2.07 GiB (50%)\nTitle                                    : HDTS\nWriting library                          : x264 core 140 r2377 1ca7bb9\nLanguage                                 : English\nDefault                                  : Yes\nForced                                   : No\n\nAudio #1\nID                                       : 2\nFormat                                   : AC-3\nFormat/Info                              : Audio Coding 3\nMode extension                           : CM (complete main)\nFormat settings, Endianness              : Big\nCodec ID                                 : A_AC3\nDuration                                 : 1h 52mn\nBit rate mode                            : Constant\nBit rate                                 : 640 Kbps\nChannel(s)                               : 6 channels\nChannel positions                        : Front: L C R, Side: L R, LFE\nSampling rate                            : 48.0 KHz\nBit depth                                : 16 bits\nCompression mode                         : Lossy\nStream size                              : 513 MiB (12%)\nTitle                                    : HDTS\nLanguage                                 : English\nDefault                                  : Yes\nForced                                   : No\n\nAudio #2\nID                                       : 3\nFormat                                   : AC-3\nFormat/Info                              : Audio Coding 3\nMode extension                           : CM (complete main)\nFormat settings, Endianness              : Big\nCodec ID                                 : A_AC3\nDuration                                 : 1h 52mn\nBit rate mode                            : Constant\nBit rate                                 : 640 Kbps\nChannel(s)                               : 6 channels\nChannel positions                        : Front: L C R, Side: L R, LFE\nSampling rate                            : 48.0 KHz\nBit depth                                : 16 bits\nCompression mode                         : Lossy\nStream size                              : 513 MiB (12%)\nTitle                                    : Hindi DD5.1\nLanguage                                 : Hindi\nDefault                                  : No\nForced                                   : No\n\nAudio #3\nID                                       : 4\nFormat                                   : AC-3\nFormat/Info                              : Audio Coding 3\nMode extension                           : CM (complete main)\nFormat settings, Endianness              : Big\nCodec ID                                 : A_AC3\nDuration                                 : 1h 52mn\nBit rate mode                            : Constant\nBit rate                                 : 640 Kbps\nChannel(s)                               : 6 channels\nChannel positions                        : Front: L C R, Side: L R, LFE\nSampling rate                            : 48.0 KHz\nBit depth                                : 16 bits\nCompression mode                         : Lossy\nStream size                              : 513 MiB (12%)\nTitle                                    : Tamil\nLanguage                                 : Tamil\nDefault                                  : No\nForced                                   : No\n\nAudio #4\nID                                       : 5\nFormat                                   : AC-3\nFormat/Info                              : Audio Coding 3\nMode extension                           : CM (complete main)\nFormat settings, Endianness              : Big\nCodec ID                                 : A_AC3\nDuration                                 : 1h 52mn\nBit rate mode                            : Constant\nBit rate                                 : 640 Kbps\nChannel(s)                               : 6 channels\nChannel positions                        : Front: L C R, Side: L R, LFE\nSampling rate                            : 48.0 KHz\nBit depth                                : 16 bits\nCompression mode                         : Lossy\nStream size                              : 513 MiB (12%)\nTitle                                    : Telugu\nLanguage                                 : Telugu\nDefault                                  : No\nForced                                   : No\n\nText #1\nID                                       : 6\nFormat                                   : UTF-8\nCodec ID                                 : S_TEXT/UTF8\nCodec ID/Info                            : UTF-8 Plain Text\nTitle                                    : English\nLanguage                                 : English\nDefault                                  : Yes\nForced                                   : No\n\nText #2\nID                                       : 7\nFormat                                   : UTF-8\nCodec ID                                 : S_TEXT/UTF8\nCodec ID/Info                            : UTF-8 Plain Text\nLanguage                                 : English\nDefault                                  : No\nForced                                   : No\n\nText #3\nID                                       : 8\nFormat                                   : UTF-8\nCodec ID                                 : S_TEXT/UTF8\nCodec ID/Info                            : UTF-8 Plain Text\nTitle                                    : SDH\nLanguage                                 : English\nDefault                                  : No\nForced                                   : No\n\nMenu\n00:00:00.000                             : en:Chapter 1\n00:06:13.665                             : en:Chapter 2\n00:13:05.535                             : en:Chapter 3\n00:18:40.995                             : en:Chapter 4\n00:24:56.829                             : en:Chapter 5\n00:29:07.663                             : en:Chapter 6\n00:41:33.366                             : en:Chapter 7\n00:49:40.227                             : en:Chapter 8\n00:55:56.144                             : en:Chapter 9\n01:00:08.897                             : en:Chapter 10\n01:08:12.672                             : en:Chapter 11\n01:12:39.897                             : en:Chapter 12\n01:21:34.473                             : en:Chapter 13\n01:26:22.094                             : en:Chapter 14\n01:33:58.800                             : en:Chapter 15\n01:38:31.656                             : en:Chapter 16\n01:41:49.520                             : en:Chapter 17\n\nScreens: \n\n[img]http://s28.postimg.org/k6h8gpda5/thumbnails.jpg[/img]","torrent":{"xt":"urn:btih:34bb8868cb847caf595daff8fb7dca65c207ced0","amp;dn":"Thor+The+Dark+World+2013+m720p+BluRay+x264+DD5.1+Multi-Audio+%5BEn","amp;tr":["udp%3A%2F%2Ftracker.openbittorrent.com%3A80","udp%3A%2F%2Fopen.demonii.com%3A1337","udp%3A%2F%2Ftracker.coppersurfer.tk%3A6969","udp%3A%2F%2Fexodus.desync.com%3A6969"],"infoHash":"34bb8868cb847caf595daff8fb7dca65c207ced0","infoHashBuffer":{"type":"Buffer","data":[52,187,136,104,203,132,124,175,89,93,175,248,251,125,202,101,194,7,206,208]},"announce":[],"urlList":[]}}